# xmcd
#
# Track frame offsets:
#	150
#	13592
#	23401
#	37635
#	51531
#	65268
#	75023
#	86904
#	95661
#	109154
#	124506
#	135942
#	149831
#	163489
#	175602
#	190805
#	205293
#	217287
#	230006
#	241469
#
# Disc length: 3385 seconds
#
# Revision: 0
# Processed by: cddbd v1.5.2PL0 Copyright (c) Steve Scherf et al.
# Submitted via: EasyCDDAExtractor 16.0.6.1
#
DISCID=150d3714
DTITLE=Καναρίδης Μανώλης - Το ελληνικό τραγούδι 16-Μ. Καναρίδης
DYEAR=2006
DGENRE=Λαϊκή
TTITLE0=Ο μαθητής
TTITLE1=Κάθε βράδυ θα σε περιμένω
TTITLE2=Μού 'χεις ασπρίσει τα μαλλιά
TTITLE3=Έρημος κι απελπισμένος
TTITLE4=Μάγισσες
TTITLE5=Όσοι έχουνε πολλά λεφτά
TTITLE6=Μιά μέρα θα με θυμηθείς
TTITLE7=Βάρκα με πανί
TTITLE8=Στο σπίτι που γεννήθηκες
TTITLE9=Ο εφιάλτης
TTITLE10=Μιά νύχτα χειμωνιάτικη
TTITLE11=Πουθενά
TTITLE12=Κλάψε καρδιά μου, κλάψε
TTITLE13=Είν' η καρδιά μου πληγωμένη
TTITLE14=Αν δεις στον ύπνο σου ερημιά
TTITLE15=Πες μου το παράπονό σου
TTITLE16=Δώδεκα χτύπησαν οι δείκτες
TTITLE17=Φεύγω μακριά σου
TTITLE18=Είναι μιά πέτρα στην καρδιά
TTITLE19=Ο Αράπης
EXTD=
EXTT0=
EXTT1=
EXTT2=
EXTT3=
EXTT4=
EXTT5=
EXTT6=
EXTT7=
EXTT8=
EXTT9=
EXTT10=
EXTT11=
EXTT12=
EXTT13=
EXTT14=
EXTT15=
EXTT16=
EXTT17=
EXTT18=
EXTT19=
PLAYORDER=
